<svg width="52" height="52" viewBox="0 0 52 52" fill="none" xmlns="http://www.w3.org/2000/svg">
<path d="M45.006 22.0026L42.042 13.1106C41.612 11.816 40.785 10.6898 39.6784 9.89202C38.5718 9.09427 37.242 8.66554 35.8778 8.66675H16.1221C14.758 8.66554 13.4281 9.09427 12.3216 9.89202C11.215 10.6898 10.388 11.816 9.95798 13.1106L6.99398 22.0026C6.20579 22.3324 5.53269 22.8878 5.05929 23.5991C4.58589 24.3103 4.33331 25.1457 4.33331 26.0001V36.8334C4.33331 38.4324 5.20865 39.8148 6.49998 40.5666V45.5001C6.49998 46.0747 6.72825 46.6258 7.13458 47.0322C7.54091 47.4385 8.09201 47.6668 8.66665 47.6668H10.8333C11.4079 47.6668 11.959 47.4385 12.3654 47.0322C12.7717 46.6258 13 46.0747 13 45.5001V41.1668H39V45.5001C39 46.0747 39.2282 46.6258 39.6346 47.0322C40.0409 47.4385 40.592 47.6668 41.1666 47.6668H43.3333C43.9079 47.6668 44.459 47.4385 44.8654 47.0322C45.2717 46.6258 45.5 46.0747 45.5 45.5001V40.5666C46.1573 40.1896 46.7037 39.646 47.0841 38.9906C47.4645 38.3353 47.6654 37.5912 47.6666 36.8334V26.0001C47.6666 25.1457 47.4141 24.3103 46.9407 23.5991C46.4673 22.8878 45.7942 22.3324 45.006 22.0026ZM16.1221 13.0001H35.8756C36.8095 13.0001 37.6371 13.5938 37.9318 14.4821L40.3281 21.6668H11.6718L14.066 14.4821C14.2097 14.0505 14.4857 13.6751 14.8548 13.4091C15.2238 13.1431 15.6672 13 16.1221 13.0001ZM11.9166 34.6668C11.4897 34.6666 11.067 34.5824 10.6726 34.4189C10.2782 34.2553 9.91989 34.0158 9.6181 33.7138C9.31631 33.4118 9.07696 33.0533 8.91371 32.6588C8.75045 32.2643 8.6665 31.8415 8.66665 31.4146C8.66679 30.9876 8.75102 30.5649 8.91453 30.1705C9.07805 29.7761 9.31764 29.4178 9.61963 29.116C9.92162 28.8142 10.2801 28.5749 10.6746 28.4116C11.0691 28.2484 11.4919 28.1644 11.9188 28.1646C12.7811 28.1649 13.6079 28.5077 14.2174 29.1176C14.8269 29.7275 15.1691 30.5545 15.1688 31.4168C15.1685 32.279 14.8257 33.1058 14.2158 33.7153C13.6059 34.3248 12.7789 34.667 11.9166 34.6668ZM40.0833 34.6668C39.6564 34.6666 39.2336 34.5824 38.8393 34.4189C38.4449 34.2553 38.0866 34.0158 37.7848 33.7138C37.483 33.4118 37.2436 33.0533 37.0804 32.6588C36.9171 32.2643 36.8332 31.8415 36.8333 31.4146C36.8335 30.9876 36.9177 30.5649 37.0812 30.1705C37.2447 29.7761 37.4843 29.4178 37.7863 29.116C38.0883 28.8142 38.4468 28.5749 38.8413 28.4116C39.2358 28.2484 39.6585 28.1644 40.0855 28.1646C40.9477 28.1649 41.7745 28.5077 42.384 29.1176C42.9935 29.7275 43.3358 30.5545 43.3355 31.4168C43.3352 32.279 42.9924 33.1058 42.3825 33.7153C41.7726 34.3248 40.9456 34.667 40.0833 34.6668Z" fill="#010203"/>
</svg>
