<svg width="52" height="52" viewBox="0 0 52 52" fill="none" xmlns="http://www.w3.org/2000/svg">
<path d="M11.375 30.875V21.125H15.4375V17.875H4.0625V21.125H8.125V30.875H11.375ZM33.8694 30.875L36.1562 27.3567L38.4431 30.875H42.3194L38.0944 24.375L42.3194 17.875H38.4431L36.1562 21.3933L33.8694 17.875H29.9931L34.2181 24.375L29.9931 30.875H33.8694ZM44.6875 17.875H47.9375V30.875H44.6875V17.875ZM4.0625 10.5625H47.9375V13.8125H4.0625V10.5625ZM4.0625 34.9375H47.9375V38.1875H4.0625V34.9375ZM24.5108 28.4375L25.3233 30.875H28.7491L24.4156 17.875H19.7486L15.7431 30.875H19.1438L19.8954 28.4375H24.5108ZM22.1122 21.2414L23.4275 25.1875H20.8963L22.1122 21.2414Z" fill="#010203"/>
</svg>
