<svg width="52" height="52" viewBox="0 0 52 52" fill="none" xmlns="http://www.w3.org/2000/svg">
<path d="M35.4792 4.33325H16.5122C16.0269 4.33325 13.481 4.47409 11.089 7.26042C8.73385 10.0013 8.66669 12.7009 8.66669 12.9999V36.8332C8.66669 37.9825 9.12323 39.0847 9.93589 39.8974C10.7485 40.71 11.8507 41.1666 13 41.1666H15.1667L10.8334 47.6666H15.9315L17.3767 45.4999H34.71L36.1769 47.6666H41.1667L36.8334 41.1666H39C40.1493 41.1666 41.2515 40.71 42.0642 39.8974C42.8768 39.0847 43.3334 37.9825 43.3334 36.8332V12.9999C43.3355 12.5926 43.264 9.89292 40.8872 7.22575C38.3825 4.41342 35.7695 4.33325 35.4792 4.33325ZM21.6667 8.66658H30.3334V12.9999H21.6667V8.66658ZM16.25 36.8332C15.3878 36.833 14.561 36.4902 13.9515 35.8803C13.342 35.2704 12.9997 34.4433 13 33.5811C13.0003 32.7188 13.3431 31.892 13.953 31.2825C14.5629 30.673 15.3899 30.3308 16.2522 30.3311C17.1144 30.3314 17.9412 30.6742 18.5507 31.2841C19.1602 31.894 19.5025 32.721 19.5022 33.5833C19.5019 34.4455 19.1591 35.2723 18.5492 35.8818C17.9393 36.4913 17.1123 36.8335 16.25 36.8332ZM35.75 36.8332C34.8878 36.833 34.061 36.4902 33.4515 35.8803C32.842 35.2704 32.4997 34.4433 32.5 33.5811C32.5003 32.7188 32.8431 31.892 33.453 31.2825C34.0629 30.673 34.8899 30.3308 35.7522 30.3311C36.6144 30.3314 37.4412 30.6742 38.0507 31.2841C38.6602 31.894 39.0025 32.721 39.0022 33.5833C39.0019 34.4455 38.6591 35.2723 38.0492 35.8818C37.4393 36.4913 36.6123 36.8335 35.75 36.8332ZM39 25.9999H13V17.3333H39V25.9999Z" fill="#010203"/>
</svg>
