<svg width="52.000000" height="52.000000" viewBox="0 0 52 52" fill="none" xmlns="http://www.w3.org/2000/svg" xmlns:xlink="http://www.w3.org/1999/xlink">
	<desc>
			Created with Pixso.
	</desc>
	<defs>
		<clipPath id="clip191_1056">
			<rect id="fa6-solid:bus" width="52.000000" height="52.000000" fill="white" fill-opacity="0"/>
		</clipPath>
	</defs>
	<rect id="fa6-solid:bus" width="52.000000" height="52.000000" fill="#FFFFFF" fill-opacity="0"/>
	<g clip-path="url(#clip191_1056)">
		<path id="Vector" d="M26.5 6C36.73 6 43.56 8.75 43.56 12.25L43.56 16C44.91 16 46 17.11 46 18.5L46 23.5C46 24.88 44.91 26 43.56 26L43.56 38.5C43.56 39.88 42.47 41 41.12 41L41.12 43.5C41.12 44.88 40.03 46 38.68 46L36.25 46C34.9 46 33.81 44.88 33.81 43.5L33.81 41L19.18 41L19.18 43.5C19.18 44.88 18.09 46 16.75 46L14.31 46C12.96 46 11.87 44.88 11.87 43.5L11.87 41C10.52 41 9.43 39.88 9.43 38.5L9.43 26C8.08 26 7 24.88 7 23.5L7 18.5C7 17.11 8.08 16 9.43 16L9.43 12.25C9.43 8.75 16.26 6 26.5 6ZM14.31 18.5L14.31 26C14.31 27.38 15.4 28.5 16.75 28.5L25.28 28.5L25.28 16L16.75 16C15.4 16 14.31 17.11 14.31 18.5ZM27.71 28.5L36.25 28.5C37.59 28.5 38.68 27.38 38.68 26L38.68 18.5C38.68 17.11 37.59 16 36.25 16L27.71 16L27.71 28.5ZM15.53 37.25C16.17 37.25 16.79 36.98 17.25 36.51C17.71 36.04 17.96 35.41 17.96 34.75C17.96 34.08 17.71 33.45 17.25 32.98C16.79 32.51 16.17 32.25 15.53 32.25C14.88 32.25 14.26 32.51 13.8 32.98C13.35 33.45 13.09 34.08 13.09 34.75C13.09 35.41 13.35 36.04 13.8 36.51C14.26 36.98 14.88 37.25 15.53 37.25ZM37.46 37.25C38.11 37.25 38.73 36.98 39.19 36.51C39.64 36.04 39.9 35.41 39.9 34.75C39.9 34.08 39.64 33.45 39.19 32.98C38.73 32.51 38.11 32.25 37.46 32.25C36.82 32.25 36.2 32.51 35.74 32.98C35.28 33.45 35.03 34.08 35.03 34.75C35.03 35.41 35.28 36.04 35.74 36.51C36.2 36.98 36.82 37.25 37.46 37.25ZM33.81 12.25C33.81 11.56 33.26 11 32.59 11L20.4 11C19.73 11 19.18 11.56 19.18 12.25C19.18 12.93 19.73 13.5 20.4 13.5L32.59 13.5C33.26 13.5 33.81 12.93 33.81 12.25Z" fill="#010203" fill-opacity="1.000000" fill-rule="nonzero"/>
	</g>
</svg>
