<svg width="36" height="36" viewBox="0 0 36 36" fill="none" xmlns="http://www.w3.org/2000/svg">
<g clip-path="url(#clip0_191_1118)">
<path d="M10.08 24.96C10.4619 24.8486 10.8724 24.8935 11.2212 25.0848C11.5701 25.2761 11.8286 25.5981 11.94 25.98C12.0514 26.3619 12.0065 26.7724 11.8152 27.1213C11.6239 27.4701 11.3019 27.7286 10.92 27.84C10.17 28.059 9.63 28.29 9.2835 28.5C9.6405 28.7145 10.2045 28.9545 10.9875 29.178C12.72 29.673 15.1995 30 18 30C20.8005 30 23.28 29.673 25.0125 29.178C25.797 28.9545 26.3595 28.7145 26.7165 28.5C26.3715 28.29 25.8315 28.059 25.0815 27.84C24.7056 27.7237 24.3904 27.4644 24.204 27.1179C24.0175 26.7714 23.9746 26.3655 24.0846 25.9877C24.1946 25.6099 24.4487 25.2905 24.792 25.0982C25.1353 24.906 25.5404 24.8563 25.92 24.96C26.922 25.2525 27.84 25.6275 28.545 26.109C29.1975 26.5575 30 27.339 30 28.5C30 29.6745 29.178 30.462 28.515 30.9105C27.798 31.3935 26.8605 31.77 25.836 32.0625C23.769 32.655 21 33 18 33C15 33 12.231 32.655 10.164 32.0625C9.1395 31.77 8.202 31.3935 7.485 30.9105C6.822 30.4605 6 29.6745 6 28.5C6 27.339 6.8025 26.5575 7.455 26.109C8.16 25.6275 9.078 25.2525 10.08 24.96ZM18 3C20.9837 3 23.8452 4.18526 25.955 6.29505C28.0647 8.40483 29.25 11.2663 29.25 14.25C29.25 18.102 27.15 21.234 24.975 23.46C24.1104 24.3359 23.1813 25.1457 22.1955 25.8825C21.3045 26.5515 19.2675 27.8055 19.2675 27.8055C18.8812 28.0251 18.4444 28.1406 18 28.1406C17.5556 28.1406 17.1188 28.0251 16.7325 27.8055C15.7212 27.22 14.7436 26.578 13.8045 25.8825C12.8183 25.1462 11.8892 24.3363 11.025 23.46C8.85 21.234 6.75 18.102 6.75 14.25C6.75 11.2663 7.93526 8.40483 10.045 6.29505C12.1548 4.18526 15.0163 3 18 3ZM18 11.25C17.2044 11.25 16.4413 11.5661 15.8787 12.1287C15.3161 12.6913 15 13.4544 15 14.25C15 15.0456 15.3161 15.8087 15.8787 16.3713C16.4413 16.9339 17.2044 17.25 18 17.25C18.7956 17.25 19.5587 16.9339 20.1213 16.3713C20.6839 15.8087 21 15.0456 21 14.25C21 13.4544 20.6839 12.6913 20.1213 12.1287C19.5587 11.5661 18.7956 11.25 18 11.25Z" fill="#A04337"/>
</g>
<defs>
<clipPath id="clip0_191_1118">
<rect width="36" height="36" fill="white"/>
</clipPath>
</defs>
</svg>
