<svg width="36" height="36" viewBox="0 0 36 36" fill="none" xmlns="http://www.w3.org/2000/svg">
<g clip-path="url(#clip0_255_1073)">
<path fill-rule="evenodd" clip-rule="evenodd" d="M10.5 4.5C8.9087 4.5 7.38258 5.13214 6.25736 6.25736C5.13214 7.38258 4.5 8.9087 4.5 10.5V25.5C4.5 27.0913 5.13214 28.6174 6.25736 29.7426C7.38258 30.8679 8.9087 31.5 10.5 31.5H25.5C27.0913 31.5 28.6174 30.8679 29.7426 29.7426C30.8679 28.6174 31.5 27.0913 31.5 25.5V10.5C31.5 8.9087 30.8679 7.38258 29.7426 6.25736C28.6174 5.13214 27.0913 4.5 25.5 4.5H10.5ZM25.998 15.0825C26.2188 14.7515 26.2991 14.3464 26.2211 13.9562C26.1432 13.566 25.9135 13.2228 25.5825 13.002C25.2515 12.7812 24.8464 12.7009 24.4562 12.7789C24.066 12.8568 23.7228 13.0865 23.502 13.4175C22.971 14.1225 22.4145 14.7975 21.7635 15.3975C21.009 16.0935 20.2455 16.6155 19.5015 16.9245L19.4895 14.0745C19.4465 13.7096 19.2711 13.3732 18.9966 13.1291C18.722 12.8849 18.3674 12.75 18 12.75C17.187 12.7965 16.5 13.3965 16.5 14.25V20.8095C13.578 19.9995 12 17.1645 12 14.25C12 13.8522 11.842 13.4706 11.5607 13.1893C11.2794 12.908 10.8978 12.75 10.5 12.75C10.1022 12.75 9.72064 12.908 9.43934 13.1893C9.15804 13.4706 9 13.8522 9 14.25C9 19.698 12.765 24 18 24C18.3978 24 18.7794 23.842 19.0607 23.5607C19.342 23.2794 19.5 22.8978 19.5 22.5V20.1555C21.498 20.3145 23.436 21.726 24.159 23.1705C24.2432 23.3529 24.3633 23.5165 24.5119 23.6516C24.6606 23.7867 24.8349 23.8905 25.0245 23.957C25.214 24.0234 25.415 24.0512 25.6155 24.0385C25.816 24.0258 26.0119 23.9729 26.1916 23.8831C26.3712 23.7933 26.531 23.6683 26.6615 23.5155C26.7919 23.3627 26.8903 23.1853 26.9509 22.9938C27.0115 22.8022 27.033 22.6005 27.0141 22.4005C26.9952 22.2005 26.9363 22.0063 26.841 21.8295C26.124 20.394 24.786 19.0515 23.139 18.1755C23.361 17.994 23.5815 17.802 23.799 17.6025C24.6254 16.8488 25.3632 16.0034 25.998 15.0825Z" fill="white"/>
</g>
<defs>
<clipPath id="clip0_255_1073">
<rect width="36" height="36" fill="white"/>
</clipPath>
</defs>
</svg>
