<svg width="42" height="42" viewBox="0 0 42 42" fill="none" xmlns="http://www.w3.org/2000/svg">
<g clip-path="url(#clip0_95_1992)">
<path fill-rule="evenodd" clip-rule="evenodd" d="M21 3.5C11.3348 3.5 3.5 11.3348 3.5 21C3.5 24.3075 4.41875 27.405 6.0165 30.044L4.4555 35.35C4.36587 35.6546 4.35998 35.9778 4.43843 36.2855C4.51688 36.5932 4.67678 36.8741 4.90133 37.0987C5.12587 37.3232 5.40677 37.4831 5.71448 37.5616C6.02219 37.64 6.34536 37.6341 6.65 37.5445L11.956 35.9835C14.6837 37.6339 17.8119 38.5043 21 38.5C30.6652 38.5 38.5 30.6653 38.5 21C38.5 11.3348 30.6652 3.5 21 3.5ZM17.0415 24.9603C20.5817 28.4988 23.961 28.966 25.1545 29.0098C26.9692 29.0763 28.7367 27.6903 29.4245 26.082C29.5113 25.8819 29.5428 25.6622 29.5158 25.4458C29.4887 25.2294 29.404 25.0242 29.2705 24.8518C28.3115 23.6268 27.0148 22.7465 25.7478 21.8715C25.4832 21.6886 25.1581 21.6152 24.8407 21.6668C24.5232 21.7183 24.2381 21.8908 24.045 22.148L22.995 23.7493C22.9398 23.8353 22.8538 23.8971 22.7545 23.9218C22.6553 23.9465 22.5504 23.9324 22.4613 23.8823C21.749 23.4745 20.7113 22.7815 19.9658 22.036C19.2203 21.2905 18.5693 20.3 18.2035 19.6333C18.1582 19.5485 18.145 19.4503 18.1666 19.3566C18.1882 19.263 18.2429 19.1804 18.3207 19.124L19.9377 17.9235C20.1685 17.7229 20.3174 17.4443 20.3562 17.141C20.3949 16.8377 20.3207 16.5307 20.1477 16.2785C19.3637 15.1305 18.4503 13.671 17.1255 12.7032C16.9545 12.5794 16.7543 12.5021 16.5444 12.4791C16.3345 12.4561 16.1223 12.4881 15.9285 12.572C14.3185 13.2615 12.9255 15.029 12.992 16.8473C13.0357 18.0408 13.503 21.42 17.0415 24.9603Z" fill="#A04337"/>
</g>
<defs>
<clipPath id="clip0_95_1992">
<rect width="42" height="42" fill="white"/>
</clipPath>
</defs>
</svg>
