<svg width="42" height="42" viewBox="0 0 42 42" fill="none" xmlns="http://www.w3.org/2000/svg">
<path d="M38.0428 28.7241C37.7503 30.9472 36.6585 32.9878 34.9714 34.4648C33.2843 35.9417 31.1173 36.7541 28.875 36.75C15.8485 36.75 5.25001 26.1516 5.25001 13.125C5.246 10.8828 6.05833 8.71573 7.5353 7.02863C9.01226 5.34153 11.0529 4.24976 13.276 3.95722C13.8381 3.88858 14.4074 4.00359 14.8988 4.28508C15.3903 4.56657 15.7775 4.99945 16.0027 5.5191L19.4677 13.2546V13.2743C19.6401 13.6721 19.7113 14.1064 19.6749 14.5384C19.6386 14.9704 19.4958 15.3867 19.2593 15.75C19.2298 15.7943 19.1986 15.8353 19.1658 15.8764L15.75 19.9254C16.9788 22.4225 19.5907 25.0114 22.1206 26.2435L26.1138 22.8457C26.153 22.8127 26.1941 22.7821 26.2369 22.7539C26.5999 22.5117 27.0177 22.3639 27.4522 22.3238C27.8868 22.2837 28.3245 22.3526 28.7257 22.5242L28.747 22.534L36.476 25.9974C36.9966 26.2218 37.4305 26.6086 37.7129 27.1001C37.9954 27.5916 38.1111 28.1614 38.0428 28.7241Z" fill="#A04337"/>
</svg>
