<svg width="28.000000" height="28.000000" viewBox="0 0 28 28" fill="none" xmlns="http://www.w3.org/2000/svg" xmlns:xlink="http://www.w3.org/1999/xlink">
	<desc>
			Created with Pixso.
	</desc>
	<defs>
		<clipPath id="clip191_1078">
			<rect id="codicon:location" width="28.000000" height="28.000000" fill="white" fill-opacity="0"/>
		</clipPath>
	</defs>
	<rect id="codicon:location" width="28.000000" height="28.000000" fill="#FFFFFF" fill-opacity="0"/>
	<g clip-path="url(#clip191_1078)">
		<path id="Vector" d="M18.95 4.7C17.64 3.39 15.88 2.65 14.03 2.62L13.96 2.62C12.11 2.65 10.35 3.39 9.04 4.7C7.73 6.01 6.99 7.77 6.96 9.62C6.94 10.93 7.31 12.22 8.02 13.32L13.53 24.5L14.46 24.5L19.97 13.32C20.69 12.22 21.05 10.93 21.03 9.62C21 7.77 20.26 6.01 18.95 4.7ZM13.86 4.37L14.01 4.39L14.14 4.37C15.51 4.43 16.81 5.01 17.77 6C18.73 6.99 19.27 8.31 19.28 9.68C19.3 10.66 19.01 11.62 18.47 12.43L18.43 12.49L18.4 12.55L14 21.48L9.59 12.56L9.56 12.49L9.53 12.43C8.98 11.62 8.69 10.66 8.71 9.69C8.72 8.31 9.27 6.99 10.22 6C11.18 5.01 12.49 4.43 13.86 4.37L13.86 4.37ZM14.93 8.17C14.74 8.04 14.53 7.95 14.3 7.9C14.08 7.86 13.85 7.86 13.62 7.9C13.4 7.95 13.18 8.04 12.99 8.17C12.8 8.29 12.63 8.46 12.51 8.65C12.38 8.84 12.29 9.05 12.25 9.28C12.2 9.5 12.2 9.74 12.24 9.96C12.29 10.19 12.38 10.4 12.51 10.59C12.63 10.78 12.8 10.95 12.99 11.08C13.37 11.33 13.85 11.43 14.3 11.34C14.76 11.25 15.16 10.98 15.42 10.59C15.67 10.21 15.77 9.74 15.68 9.28C15.59 8.82 15.32 8.42 14.93 8.17ZM12.02 6.71C12.4 6.44 12.83 6.25 13.29 6.15C13.74 6.05 14.21 6.05 14.67 6.13C15.13 6.22 15.57 6.4 15.96 6.65C16.35 6.91 16.68 7.24 16.94 7.63C17.2 8.02 17.38 8.45 17.47 8.91C17.56 9.37 17.55 9.84 17.45 10.3C17.36 10.76 17.17 11.19 16.9 11.57C16.64 11.95 16.3 12.28 15.9 12.53C15.13 13.02 14.2 13.19 13.3 13C12.41 12.81 11.63 12.28 11.12 11.52C10.61 10.76 10.42 9.83 10.59 8.93C10.76 8.03 11.27 7.24 12.02 6.71Z" fill="#010203" fill-opacity="1.000000" fill-rule="evenodd"/>
	</g>
</svg>
