<svg width="24" height="46" viewBox="0 0 24 46" fill="none" xmlns="http://www.w3.org/2000/svg">
<path d="M1.33862 3.99126L18.6299 21.56C19.0091 21.9433 19.2218 22.4608 19.2218 23C19.2218 23.5392 19.0091 24.0567 18.6299 24.44L1.34237 42.0088C0.963331 42.3945 0.750944 42.9136 0.750944 43.4544C0.750944 43.9952 0.963331 44.5143 1.34237 44.9C1.52753 45.0899 1.74884 45.2409 1.99325 45.344C2.23767 45.447 2.50024 45.5001 2.76549 45.5001C3.03075 45.5001 3.29331 45.447 3.53773 45.344C3.78214 45.2409 4.00345 45.0899 4.18861 44.9L21.4761 27.335C22.6121 26.1781 23.2485 24.6214 23.2485 23C23.2485 21.3786 22.6121 19.822 21.4761 18.665L4.18862 1.10001C4.00339 0.909507 3.78185 0.758073 3.53709 0.654668C3.29233 0.551263 3.02932 0.497985 2.76362 0.497985C2.49791 0.497985 2.2349 0.551263 1.99014 0.654668C1.74538 0.758073 1.52384 0.909507 1.33862 1.10001C0.959581 1.48572 0.747196 2.00486 0.747196 2.54564C0.747196 3.08641 0.959581 3.60556 1.33862 3.99126Z" fill="#010203"/>
</svg>
