<svg width="60.000000" height="60.000000" viewBox="0 0 60 60" fill="none" xmlns="http://www.w3.org/2000/svg" xmlns:xlink="http://www.w3.org/1999/xlink">
	<desc>
			Created with Pixso.
	</desc>
	<defs>
		<clipPath id="clip191_1094">
			<rect id="icons8:plus" width="60.000000" height="60.000000" fill="white" fill-opacity="0"/>
		</clipPath>
	</defs>
	<rect id="icons8:plus" width="60.000000" height="60.000000" fill="#FFFFFF" fill-opacity="0"/>
	<g clip-path="url(#clip191_1094)">
		<path id="Vector" d="M30 5.62C16.56 5.62 5.62 16.56 5.62 30C5.62 43.43 16.56 54.37 30 54.37C43.43 54.37 54.37 43.43 54.37 30C54.37 16.56 43.43 5.62 30 5.62ZM30 9.37C41.41 9.37 50.62 18.58 50.62 30C50.62 41.41 41.41 50.62 30 50.62C18.58 50.62 9.37 41.41 9.37 30C9.37 18.58 18.58 9.37 30 9.37ZM28.12 18.75L28.12 28.12L18.75 28.12L18.75 31.87L28.12 31.87L28.12 41.25L31.87 41.25L31.87 31.87L41.25 31.87L41.25 28.12L31.87 28.12L31.87 18.75L28.12 18.75Z" fill="#FFFFFF" fill-opacity="1.000000" fill-rule="nonzero"/>
	</g>
</svg>
