<svg width="22" height="22" viewBox="0 0 22 22" fill="none" xmlns="http://www.w3.org/2000/svg">
<path d="M9.16671 13.75L13.9242 11L9.16671 8.24999V13.75ZM19.7634 6.57249C19.8825 7.00333 19.965 7.58083 20.02 8.31416C20.0842 9.04749 20.1117 9.67999 20.1117 10.23L20.1667 11C20.1667 13.0075 20.02 14.4833 19.7634 15.4275C19.5342 16.2525 19.0025 16.7842 18.1775 17.0133C17.7467 17.1325 16.9584 17.215 15.7484 17.27C14.5567 17.3342 13.4659 17.3617 12.4575 17.3617L11 17.4167C7.15921 17.4167 4.76671 17.27 3.82254 17.0133C2.99754 16.7842 2.46587 16.2525 2.23671 15.4275C2.11754 14.9967 2.03504 14.4192 1.98004 13.6858C1.91587 12.9525 1.88837 12.32 1.88837 11.77L1.83337 11C1.83337 8.99249 1.98004 7.51666 2.23671 6.57249C2.46587 5.74749 2.99754 5.21583 3.82254 4.98666C4.25337 4.86749 5.04171 4.78499 6.25171 4.72999C7.44337 4.66583 8.53421 4.63833 9.54254 4.63833L11 4.58333C14.8409 4.58333 17.2334 4.72999 18.1775 4.98666C19.0025 5.21583 19.5342 5.74749 19.7634 6.57249Z" fill="#172925"/>
</svg>
