<svg width="22" height="22" viewBox="0 0 22 22" fill="none" xmlns="http://www.w3.org/2000/svg">
<path d="M11 1.83334C5.94004 1.83334 1.83337 5.94001 1.83337 11C1.83337 16.06 5.94004 20.1667 11 20.1667C16.06 20.1667 20.1667 16.06 20.1667 11C20.1667 5.94001 16.06 1.83334 11 1.83334ZM15.2534 8.06668C15.1159 9.51501 14.52 13.035 14.2175 14.6575C14.0892 15.345 13.8325 15.5742 13.5942 15.6017C13.0625 15.6475 12.6592 15.2533 12.1459 14.9142C11.3392 14.3825 10.8809 14.0525 10.1017 13.5392C9.19421 12.9433 9.78087 12.6133 10.3034 12.0817C10.4409 11.9442 12.7875 9.80834 12.8334 9.61584C12.8397 9.58669 12.8389 9.55642 12.8309 9.52766C12.8229 9.49891 12.808 9.47254 12.7875 9.45084C12.7325 9.40501 12.6592 9.42334 12.595 9.43251C12.5125 9.45084 11.2292 10.3033 8.72671 11.99C8.36004 12.2375 8.03004 12.3658 7.73671 12.3567C7.40671 12.3475 6.78337 12.1733 6.31587 12.0175C5.73837 11.8342 5.28921 11.7333 5.32587 11.4125C5.34421 11.2475 5.57337 11.0825 6.00421 10.9083C8.68087 9.74418 10.4592 8.97418 11.3484 8.60751C13.8967 7.54418 14.4192 7.36084 14.7675 7.36084C14.8409 7.36084 15.015 7.37918 15.125 7.47084C15.2167 7.54418 15.2442 7.64501 15.2534 7.71834C15.2442 7.77334 15.2625 7.93834 15.2534 8.06668Z" fill="#172925"/>
</svg>
