<svg width="42" height="42" viewBox="0 0 42 42" fill="none" xmlns="http://www.w3.org/2000/svg">
<g clip-path="url(#clip0_95_1984)">
<path fill-rule="evenodd" clip-rule="evenodd" d="M12.25 5.25C10.3935 5.25 8.61301 5.9875 7.30025 7.30025C5.9875 8.61301 5.25 10.3935 5.25 12.25V29.75C5.25 31.6065 5.9875 33.387 7.30025 34.6997C8.61301 36.0125 10.3935 36.75 12.25 36.75H29.75C31.6065 36.75 33.387 36.0125 34.6997 34.6997C36.0125 33.387 36.75 31.6065 36.75 29.75V12.25C36.75 10.3935 36.0125 8.61301 34.6997 7.30025C33.387 5.9875 31.6065 5.25 29.75 5.25H12.25ZM30.331 17.5963C30.5886 17.2101 30.6822 16.7374 30.5913 16.2822C30.5004 15.827 30.2324 15.4266 29.8463 15.169C29.4601 14.9114 28.9874 14.8178 28.5322 14.9087C28.077 14.9996 27.6766 15.2676 27.419 15.6537C26.7995 16.4762 26.1502 17.2638 25.3907 17.9638C24.5105 18.7758 23.6198 19.3848 22.7518 19.7452L22.7378 16.4203C22.6876 15.9946 22.483 15.6021 22.1627 15.3173C21.8423 15.0324 21.4286 14.8751 21 14.875C20.0515 14.9292 19.25 15.6292 19.25 16.625V24.2778C15.841 23.3328 14 20.0252 14 16.625C14 16.1609 13.8156 15.7158 13.4874 15.3876C13.1592 15.0594 12.7141 14.875 12.25 14.875C11.7859 14.875 11.3408 15.0594 11.0126 15.3876C10.6844 15.7158 10.5 16.1609 10.5 16.625C10.5 22.981 14.8925 28 21 28C21.4641 28 21.9092 27.8156 22.2374 27.4874C22.5656 27.1592 22.75 26.7141 22.75 26.25V23.5148C25.081 23.7003 27.342 25.347 28.1855 27.0322C28.2838 27.245 28.4238 27.4359 28.5972 27.5935C28.7707 27.7511 28.974 27.8723 29.1952 27.9498C29.4164 28.0274 29.6509 28.0597 29.8848 28.0449C30.1186 28.0301 30.3472 27.9684 30.5568 27.8636C30.7664 27.7588 30.9529 27.613 31.1051 27.4347C31.2572 27.2565 31.3721 27.0495 31.4427 26.826C31.5134 26.6026 31.5385 26.3672 31.5164 26.1339C31.4944 25.9006 31.4257 25.674 31.3145 25.4678C30.478 23.793 28.917 22.2267 26.9955 21.2047C27.2545 20.993 27.5118 20.769 27.7655 20.5362C28.7297 19.657 29.5904 18.6706 30.331 17.5963Z" fill="#A04337"/>
</g>
<defs>
<clipPath id="clip0_95_1984">
<rect width="42" height="42" fill="white"/>
</clipPath>
</defs>
</svg>
