<svg width="30" height="30" viewBox="0 0 30 30" fill="none" xmlns="http://www.w3.org/2000/svg">
<path fill-rule="evenodd" clip-rule="evenodd" d="M14.3371 4.96209C14.7032 4.59597 15.2968 4.59597 15.6629 4.96209L26.9129 16.2121C27.279 16.5782 27.279 17.1718 26.9129 17.5379C26.5468 17.904 25.9532 17.904 25.5871 17.5379L15 6.95083L4.41291 17.5379C4.0468 17.904 3.4532 17.904 3.08709 17.5379C2.72097 17.1718 2.72097 16.5782 3.08709 16.2121L14.3371 4.96209Z" fill="white"/>
<path fill-rule="evenodd" clip-rule="evenodd" d="M14.3371 12.4621C14.7032 12.096 15.2968 12.096 15.6629 12.4621L26.9129 23.7121C27.279 24.0782 27.279 24.6718 26.9129 25.0379C26.5468 25.404 25.9532 25.404 25.5871 25.0379L15 14.4508L4.41291 25.0379C4.0468 25.404 3.4532 25.404 3.08709 25.0379C2.72097 24.6718 2.72097 24.0782 3.08709 23.7121L14.3371 12.4621Z" fill="white"/>
</svg>
