<svg width="22" height="22" viewBox="0 0 22 22" fill="none" xmlns="http://www.w3.org/2000/svg">
<g clip-path="url(#clip0_202_2312)">
<path fill-rule="evenodd" clip-rule="evenodd" d="M11 1.83334C5.93729 1.83334 1.83337 5.93726 1.83337 11C1.83337 12.7325 2.31462 14.355 3.15154 15.7373L2.33387 18.5167C2.28693 18.6763 2.28384 18.8455 2.32493 19.0067C2.36603 19.1679 2.44978 19.315 2.5674 19.4326C2.68502 19.5503 2.83216 19.634 2.99334 19.6751C3.15452 19.7162 3.3238 19.7131 3.48337 19.6662L6.26271 18.8485C7.69149 19.713 9.33008 20.1689 11 20.1667C16.0628 20.1667 20.1667 16.0628 20.1667 11C20.1667 5.93726 16.0628 1.83334 11 1.83334ZM8.92654 13.0744C10.781 14.9279 12.551 15.1727 13.1762 15.1956C14.1268 15.2304 15.0526 14.5044 15.4129 13.662C15.4584 13.5572 15.4749 13.4421 15.4607 13.3288C15.4465 13.2154 15.4021 13.1079 15.3322 13.0176C14.8299 12.3759 14.1506 11.9148 13.487 11.4565C13.3484 11.3607 13.1781 11.3223 13.0118 11.3493C12.8455 11.3763 12.6962 11.4666 12.595 11.6013L12.045 12.4401C12.0161 12.4852 11.9711 12.5175 11.9191 12.5305C11.8671 12.5434 11.8122 12.536 11.7655 12.5098C11.3924 12.2962 10.8488 11.9332 10.4583 11.5427C10.0678 11.1522 9.72679 10.6333 9.53521 10.2841C9.51145 10.2397 9.50459 10.1882 9.51588 10.1392C9.52717 10.0902 9.55586 10.0469 9.59662 10.0173L10.4436 9.38851C10.5645 9.28341 10.6425 9.13753 10.6628 8.97863C10.6831 8.81974 10.6442 8.65894 10.5536 8.52684C10.143 7.92551 9.66446 7.16101 8.97054 6.65409C8.88099 6.5892 8.77608 6.54873 8.66615 6.53668C8.55621 6.52462 8.44503 6.5414 8.34354 6.58534C7.50021 6.94651 6.77054 7.87234 6.80537 8.82476C6.82829 9.44993 7.07304 11.22 8.92654 13.0744Z" fill="#172925"/>
</g>
<defs>
<clipPath id="clip0_202_2312">
<rect width="22" height="22" fill="white"/>
</clipPath>
</defs>
</svg>
