<svg width="22" height="22" viewBox="0 0 22 22" fill="none" xmlns="http://www.w3.org/2000/svg">
<g clip-path="url(#clip0_191_1213)">
<path fill-rule="evenodd" clip-rule="evenodd" d="M6.41667 2.75C5.44421 2.75 4.51157 3.13631 3.82394 3.82394C3.13631 4.51157 2.75 5.44421 2.75 6.41667V15.5833C2.75 16.5558 3.13631 17.4884 3.82394 18.1761C4.51157 18.8637 5.44421 19.25 6.41667 19.25H15.5833C16.5558 19.25 17.4884 18.8637 18.1761 18.1761C18.8637 17.4884 19.25 16.5558 19.25 15.5833V6.41667C19.25 5.44421 18.8637 4.51157 18.1761 3.82394C17.4884 3.13631 16.5558 2.75 15.5833 2.75H6.41667ZM15.8877 9.21708C16.0226 9.01481 16.0716 8.76722 16.024 8.52879C15.9764 8.29035 15.836 8.0806 15.6338 7.94567C15.4315 7.81074 15.1839 7.76169 14.9455 7.80931C14.707 7.85693 14.4973 7.99731 14.3623 8.19958C14.0378 8.63042 13.6978 9.04292 13.2999 9.40958C12.8388 9.83492 12.3723 10.1539 11.9176 10.3428L11.9103 8.60108C11.884 8.3781 11.7768 8.17252 11.609 8.02332C11.4412 7.87413 11.2245 7.7917 11 7.79167C10.5032 7.82008 10.0833 8.18675 10.0833 8.70833V12.7169C8.29767 12.2219 7.33333 10.4894 7.33333 8.70833C7.33333 8.46522 7.23676 8.23206 7.06485 8.06015C6.89294 7.88824 6.65978 7.79167 6.41667 7.79167C6.17355 7.79167 5.94039 7.88824 5.76849 8.06015C5.59658 8.23206 5.5 8.46522 5.5 8.70833C5.5 12.0377 7.80083 14.6667 11 14.6667C11.2431 14.6667 11.4763 14.5701 11.6482 14.3982C11.8201 14.2263 11.9167 13.9931 11.9167 13.75V12.3173C13.1377 12.4144 14.322 13.277 14.7638 14.1597C14.8153 14.2712 14.8887 14.3712 14.9795 14.4537C15.0704 14.5363 15.1769 14.5998 15.2927 14.6404C15.4086 14.681 15.5314 14.6979 15.6539 14.6902C15.7764 14.6824 15.8961 14.6501 16.0059 14.5952C16.1158 14.5403 16.2134 14.4639 16.2931 14.3706C16.3728 14.2772 16.433 14.1688 16.47 14.0517C16.507 13.9347 16.5202 13.8114 16.5086 13.6892C16.4971 13.567 16.4611 13.4483 16.4028 13.3403C15.9647 12.463 15.147 11.6426 14.1405 11.1073C14.2762 10.9963 14.4109 10.879 14.5438 10.7571C15.0489 10.2965 15.4997 9.77984 15.8877 9.21708Z" fill="#172925"/>
</g>
<defs>
<clipPath id="clip0_191_1213">
<rect width="22" height="22" fill="white"/>
</clipPath>
</defs>
</svg>
