<svg width="22" height="22" viewBox="0 0 22 22" fill="none" xmlns="http://www.w3.org/2000/svg">
<path d="M7.15004 1.83334H14.85C17.7834 1.83334 20.1667 4.21668 20.1667 7.15001V14.85C20.1667 16.2601 19.6066 17.6124 18.6095 18.6095C17.6124 19.6065 16.2601 20.1667 14.85 20.1667H7.15004C4.21671 20.1667 1.83337 17.7833 1.83337 14.85V7.15001C1.83337 5.73994 2.39352 4.38763 3.39059 3.39056C4.38766 2.39349 5.73997 1.83334 7.15004 1.83334ZM6.96671 3.66668C6.09149 3.66668 5.25213 4.01435 4.63326 4.63322C4.01438 5.25209 3.66671 6.09146 3.66671 6.96668V15.0333C3.66671 16.8575 5.14254 18.3333 6.96671 18.3333H15.0334C15.9086 18.3333 16.748 17.9857 17.3668 17.3668C17.9857 16.7479 18.3334 15.9086 18.3334 15.0333V6.96668C18.3334 5.14251 16.8575 3.66668 15.0334 3.66668H6.96671ZM15.8125 5.04168C16.1164 5.04168 16.4079 5.1624 16.6228 5.37728C16.8377 5.59217 16.9584 5.88362 16.9584 6.18751C16.9584 6.4914 16.8377 6.78285 16.6228 6.99774C16.4079 7.21262 16.1164 7.33334 15.8125 7.33334C15.5086 7.33334 15.2172 7.21262 15.0023 6.99774C14.7874 6.78285 14.6667 6.4914 14.6667 6.18751C14.6667 5.88362 14.7874 5.59217 15.0023 5.37728C15.2172 5.1624 15.5086 5.04168 15.8125 5.04168ZM11 6.41668C12.2156 6.41668 13.3814 6.89956 14.2409 7.7591C15.1005 8.61865 15.5834 9.78443 15.5834 11C15.5834 12.2156 15.1005 13.3814 14.2409 14.2409C13.3814 15.1005 12.2156 15.5833 11 15.5833C9.78446 15.5833 8.61868 15.1005 7.75913 14.2409C6.89959 13.3814 6.41671 12.2156 6.41671 11C6.41671 9.78443 6.89959 8.61865 7.75913 7.7591C8.61868 6.89956 9.78446 6.41668 11 6.41668ZM11 8.25001C10.2707 8.25001 9.57122 8.53974 9.0555 9.05547C8.53977 9.57119 8.25004 10.2707 8.25004 11C8.25004 11.7294 8.53977 12.4288 9.0555 12.9446C9.57122 13.4603 10.2707 13.75 11 13.75C11.7294 13.75 12.4289 13.4603 12.9446 12.9446C13.4603 12.4288 13.75 11.7294 13.75 11C13.75 10.2707 13.4603 9.57119 12.9446 9.05547C12.4289 8.53974 11.7294 8.25001 11 8.25001Z" fill="#172925"/>
</svg>
